<?xml version="1.0" standalone="no"?>
<!DOCTYPE svg PUBLIC "-//W3C//DTD SVG 20010904//EN"
 "http://www.w3.org/TR/2001/REC-SVG-20010904/DTD/svg10.dtd">
<svg version="1.0" xmlns="http://www.w3.org/2000/svg"
 width="707.000000pt" height="353.000000pt" viewBox="0 0 707.000000 353.000000"
 preserveAspectRatio="xMidYMid meet">

<g transform="translate(0.000000,353.000000) scale(0.100000,-0.100000)"
fill="#000000" stroke="none">
<path d="M3461 2364 c-28 -36 -26 -76 5 -113 l26 -31 -19 -82 -19 -83 -167 -3
-167 -2 0 -60 0 -60 -40 0 -40 0 0 -100 c0 -93 1 -100 20 -100 17 0 19 -8 22
-77 l3 -78 163 -3 163 -3 -6 -32 c-10 -46 -12 -47 -54 -47 -24 0 -48 8 -65 21
-33 26 -93 34 -125 17 -35 -19 -62 -60 -66 -99 -2 -19 -22 -65 -44 -104 -23
-38 -41 -74 -41 -80 0 -24 -45 -93 -72 -108 -15 -9 -33 -28 -38 -42 -8 -21
-16 -25 -49 -25 -35 0 -44 -6 -80 -49 -54 -64 -66 -100 -51 -146 10 -31 30
-49 30 -27 0 4 20 30 45 57 l44 50 22 -22 22 -21 -48 -56 c-26 -31 -45 -59
-42 -62 12 -12 78 -6 101 10 13 8 41 36 62 61 31 39 37 54 35 86 -1 23 3 39 9
39 23 0 60 49 60 81 0 32 33 97 56 112 7 4 29 34 49 67 20 33 41 60 46 60 5 0
9 -80 9 -190 0 -184 1 -190 20 -190 17 0 19 -5 14 -25 -3 -14 -1 -31 5 -39 9
-10 9 -20 0 -40 -9 -19 -9 -29 0 -40 9 -10 9 -20 0 -39 -7 -16 -8 -31 -1 -43
15 -30 4 -43 -63 -73 -45 -20 -70 -40 -89 -67 -38 -56 -35 -80 12 -88 48 -8
306 -8 355 0 l38 7 -2 88 c-1 48 -6 94 -10 100 -4 7 -3 22 3 34 7 16 7 29 -1
44 -9 15 -8 25 1 41 10 16 10 24 1 40 -9 13 -10 27 -4 43 5 14 5 30 0 40 -9
15 -4 17 38 17 l48 0 0 -48 c0 -26 -4 -53 -8 -59 -4 -7 -3 -21 3 -32 7 -14 7
-27 -1 -45 -9 -19 -9 -29 0 -40 8 -10 9 -21 3 -33 -5 -10 -10 -57 -11 -105
l-2 -88 216 0 c210 0 215 0 215 20 0 53 -75 131 -138 145 -38 8 -56 38 -40 65
10 16 10 24 0 40 -10 16 -10 24 0 40 10 16 10 24 0 41 -10 16 -10 24 -1 35 6
8 9 25 7 39 -4 17 -1 25 8 25 11 0 14 39 16 188 l3 187 33 -58 c19 -31 40 -60
47 -65 21 -12 60 -85 61 -115 2 -30 39 -77 61 -77 9 0 11 -11 7 -43 -5 -40 -3
-45 48 -99 51 -55 57 -58 101 -58 26 0 47 3 47 6 0 4 -21 32 -46 63 l-46 55
22 18 c12 10 25 18 29 18 3 -1 26 -25 50 -55 24 -30 47 -52 52 -50 4 3 11 22
15 41 8 43 -8 81 -61 141 -31 37 -42 43 -76 43 -33 0 -41 4 -49 24 -5 14 -21
33 -35 42 -27 17 -75 91 -75 114 0 7 -16 39 -37 73 -20 33 -40 80 -45 106 -18
96 -106 138 -182 86 -45 -31 -80 -30 -84 3 -2 12 -8 22 -13 22 -5 0 -9 7 -9
15 0 13 24 15 155 15 l155 0 0 79 c0 75 1 80 23 83 21 3 22 7 22 98 l0 95 -42
3 -43 3 0 60 0 59 -180 0 c-178 0 -180 0 -185 23 -32 142 -37 147 -18 20 l6
-43 -47 0 c-25 0 -46 4 -46 10 0 5 7 43 17 85 13 62 20 75 35 75 30 0 78 54
78 88 0 47 -34 82 -80 82 -30 0 -43 -6 -59 -26z m88 -1 c22 -18 21 -18 -28
-18 -28 0 -51 2 -51 4 0 7 35 30 46 31 7 0 22 -8 33 -17z m283 -350 c6 -16 13
-71 15 -123 l5 -95 -55 -47 -56 -48 -218 0 -218 0 -48 55 c-43 49 -52 55 -88
55 l-39 0 0 115 0 115 345 0 345 0 12 -27z m-712 -144 c0 -42 -3 -52 -20 -56
-11 -3 -20 -12 -20 -20 0 -8 -6 -13 -12 -11 -8 3 -14 29 -16 71 l-3 67 36 0
35 0 0 -51z m896 14 c-3 -21 -6 -53 -6 -70 0 -18 -4 -33 -10 -33 -5 0 -10 7
-10 15 0 8 -9 15 -20 15 -12 0 -20 7 -20 18 0 9 -3 34 -6 55 l-7 37 43 0 43 0
-7 -37z m-769 -143 l56 -60 220 0 221 0 27 26 c15 14 32 23 38 20 12 -8 15
-104 5 -130 -5 -14 -46 -16 -359 -16 l-353 0 -4 78 c-2 42 -2 92 0 110 3 31 5
32 48 32 41 0 48 -4 101 -60z m411 -182 c-3 -9 -38 -14 -116 -16 -95 -2 -112
0 -112 13 0 13 18 15 116 15 88 0 115 -3 112 -12z m-401 -40 l27 -13 -34 -5
-35 -5 -3 -87 c-3 -81 -4 -88 -23 -88 -11 0 -34 13 -50 29 -23 24 -29 38 -29
73 1 49 14 71 56 93 35 18 55 19 91 3z m421 -5 c3 -10 -28 -13 -132 -13 -115
0 -136 2 -136 15 0 13 19 15 132 13 94 -2 133 -7 136 -15z m218 -2 c63 -38 66
-124 6 -171 -46 -37 -52 -28 -52 69 l0 90 -37 3 c-37 4 -37 4 -13 15 37 17 61
15 96 -6z m-56 -296 l0 -265 -305 0 -305 0 0 265 0 265 305 0 305 0 0 -265z
m-670 78 c0 -2 -5 -1 -12 3 -7 4 -8 3 -4 -5 6 -9 -15 -55 -40 -89 -5 -7 -89
45 -87 54 1 5 17 34 34 65 l33 56 38 -40 c21 -22 38 -42 38 -44z m826 21 c20
-36 35 -66 33 -68 -2 -2 -23 -13 -46 -25 l-42 -21 -13 22 c-7 13 -11 26 -10
31 1 4 -2 7 -8 7 -5 0 -14 9 -20 19 -8 16 -3 26 28 59 20 22 38 40 39 41 1 0
19 -28 39 -65z m-929 -111 l22 -14 -20 -33 -19 -33 -34 16 -34 16 21 37 c11
21 25 34 31 31 6 -4 21 -13 33 -20z m983 -9 c12 -19 21 -36 19 -37 -67 -36
-64 -36 -83 -3 -18 30 -18 31 11 53 15 13 29 23 30 23 1 0 11 -16 23 -36z
m-1025 -79 c14 -13 25 -33 25 -45 0 -28 -43 -70 -73 -70 -61 0 -89 81 -41 119
35 27 59 26 89 -4z m1103 -3 c22 -29 11 -84 -20 -101 -55 -31 -110 18 -94 83
11 46 84 57 114 18z m-1224 -77 c3 -13 20 -32 36 -40 26 -13 30 -21 28 -50 -1
-19 -6 -35 -10 -35 -4 0 -7 -3 -6 -7 6 -16 -55 -82 -84 -92 -58 -20 -61 -13
-19 38 23 27 41 56 41 64 0 9 -12 25 -27 37 l-28 22 -45 -51 c-25 -28 -48 -51
-52 -51 -5 0 -8 17 -8 39 0 30 9 50 40 89 23 28 51 53 63 55 53 10 65 7 71
-18z m1359 -13 c36 -35 70 -106 62 -132 -7 -23 -21 -26 -32 -6 -4 8 -23 31
-41 50 l-33 37 -30 -21 c-34 -25 -36 -36 -8 -70 11 -14 29 -38 41 -54 l22 -29
-34 7 c-34 6 -113 72 -105 87 3 4 -2 9 -10 13 -9 3 -15 18 -15 38 0 26 6 37
30 50 17 9 35 29 40 44 9 24 14 26 48 19 20 -3 49 -18 65 -33z m-780 -111 c8
-8 9 -16 1 -29 -9 -14 -28 -17 -115 -17 -92 0 -104 2 -107 18 -8 40 16 50 116
45 51 -3 99 -11 105 -17z m327 4 c6 -8 10 -22 8 -32 -3 -16 -15 -18 -98 -19
-100 -2 -133 7 -128 34 4 22 38 30 129 31 56 1 80 -3 89 -14z m-335 -89 c11
-8 16 -19 12 -30 -6 -16 -10 -16 -183 -20 -34 -1 -53 26 -35 48 18 21 178 23
206 2z m340 -6 c3 -11 3 -24 0 -30 -3 -6 -51 -10 -111 -10 -84 0 -106 3 -110
15 -14 34 15 45 117 45 89 0 98 -2 104 -20z m-355 -69 c16 -4 25 -14 25 -26 0
-24 -55 -37 -144 -33 -71 3 -97 22 -72 52 10 12 31 16 90 15 42 -1 87 -4 101
-8z m354 -13 c8 -13 7 -21 -4 -32 -12 -12 -35 -13 -115 -8 -90 6 -100 9 -100
27 0 26 32 34 129 32 63 -2 81 -6 90 -19z m-360 -67 c16 -3 31 -12 34 -19 3
-9 -3 -11 -20 -7 -12 3 -62 7 -110 8 -84 2 -97 5 -81 20 8 8 137 7 177 -2z
m350 0 c3 -4 -37 -11 -89 -15 -52 -3 -102 -9 -111 -13 -12 -4 -15 -2 -12 8 2
7 15 16 29 20 35 10 177 10 183 0z m-341 -52 c25 -11 27 -17 27 -71 l0 -58
-194 0 c-115 0 -197 4 -201 10 -17 27 55 104 120 129 38 14 210 7 248 -10z
m415 6 c60 -26 123 -99 107 -125 -7 -11 -353 -14 -379 -4 -12 5 -16 20 -16 58
0 55 10 67 65 79 52 12 188 6 223 -8z"/>
<path d="M3658 2003 c6 -2 18 -2 25 0 6 3 1 5 -13 5 -14 0 -19 -2 -12 -5z"/>
<path d="M3328 1978 c-13 -13 -16 -17 -6 -9 10 8 38 18 61 22 l42 6 -37 2
c-26 1 -44 -6 -60 -21z"/>
<path d="M3596 1969 c-39 -46 -31 -112 18 -144 24 -16 27 -16 56 5 35 25 41
67 12 93 -25 23 -57 21 -82 -5 l-20 -22 0 23 c0 12 13 36 29 52 16 16 26 29
21 29 -4 0 -20 -14 -34 -31z"/>
<path d="M3701 1998 c2 -2 18 -14 34 -28 l30 -25 -24 28 c-14 15 -29 27 -34
27 -6 0 -8 -1 -6 -2z"/>
<path d="M3451 1964 c13 -17 26 -30 28 -27 3 2 -8 16 -24 31 l-28 27 24 -31z"/>
<path d="M3315 1914 c-14 -15 -25 -31 -25 -36 0 -35 57 -78 104 -78 24 0 86
43 86 60 0 5 -13 -5 -29 -21 -21 -21 -39 -29 -63 -28 -29 0 -30 1 -11 9 49 20
54 87 8 108 -36 17 -43 15 -70 -14z"/>
<path d="M3760 1906 c0 -18 -9 -46 -21 -62 l-21 -29 26 28 c18 19 26 39 26 63
0 19 -2 34 -5 34 -3 0 -5 -15 -5 -34z"/>
<path d="M3482 1900 c0 -14 2 -19 5 -12 2 6 2 18 0 25 -3 6 -5 1 -5 -13z"/>
<path d="M3257 1453 c-4 -3 -7 -82 -7 -174 0 -143 2 -168 16 -173 9 -3 131 -6
273 -6 187 0 260 3 269 12 13 13 18 301 6 332 -5 14 -39 16 -278 16 -150 0
-276 -3 -279 -7z m543 -173 l0 -160 -270 0 -269 0 0 160 -1 160 270 0 270 0 0
-160z"/>
<path d="M3281 1073 c-29 -19 -27 -59 3 -78 43 -28 91 18 67 63 -14 26 -45 33
-70 15z m49 -19 c0 -2 -9 -4 -21 -4 -11 0 -18 4 -14 10 5 8 35 3 35 -6z"/>
<path d="M3395 1080 c-15 -24 12 -30 139 -30 73 0 135 3 139 6 3 3 3 12 0 20
-4 11 -33 14 -138 14 -79 0 -136 -4 -140 -10z"/>
<path d="M3748 1082 c-21 -4 -33 -41 -24 -70 13 -39 78 -34 88 6 11 42 -20 74
-64 64z m27 -22 c3 -5 -1 -10 -10 -10 -9 0 -13 5 -10 10 3 6 8 10 10 10 2 0 7
-4 10 -10z"/>
<path d="M3402 1018 c-8 -8 -9 -15 -1 -25 9 -9 46 -13 141 -13 109 0 130 2
135 16 3 9 0 20 -8 25 -22 14 -253 11 -267 -3z"/>
<path d="M3452 890 c0 -14 2 -19 5 -12 2 6 2 18 0 25 -3 6 -5 1 -5 -13z"/>
<path d="M3621 894 c0 -11 3 -14 6 -6 3 7 2 16 -1 19 -3 4 -6 -2 -5 -13z"/>
<path d="M3452 810 c0 -14 2 -19 5 -12 2 6 2 18 0 25 -3 6 -5 1 -5 -13z"/>
<path d="M3622 810 c0 -14 2 -19 5 -12 2 6 2 18 0 25 -3 6 -5 1 -5 -13z"/>
<path d="M3451 724 c0 -11 3 -14 6 -6 3 7 2 16 -1 19 -3 4 -6 -2 -5 -13z"/>
<path d="M3621 724 c0 -11 3 -14 6 -6 3 7 2 16 -1 19 -3 4 -6 -2 -5 -13z"/>
<path d="M3449 533 c-13 -16 -12 -17 4 -4 16 13 21 21 13 21 -2 0 -10 -8 -17
-17z"/>
<path d="M3388 503 c7 -3 16 -2 19 1 4 3 -2 6 -13 5 -11 0 -14 -3 -6 -6z"/>
<path d="M3600 581 c0 -11 4 -22 9 -25 4 -3 6 6 3 19 -5 30 -12 33 -12 6z"/>
<path d="M3647 519 c7 -7 15 -10 18 -7 3 3 -2 9 -12 12 -14 6 -15 5 -6 -5z"/>
<path d="M3688 503 c7 -3 16 -2 19 1 4 3 -2 6 -13 5 -11 0 -14 -3 -6 -6z"/>
</g>
</svg>
