<?xml version="1.0" standalone="no"?>
<!DOCTYPE svg PUBLIC "-//W3C//DTD SVG 20010904//EN"
 "http://www.w3.org/TR/2001/REC-SVG-20010904/DTD/svg10.dtd">
<svg version="1.0" xmlns="http://www.w3.org/2000/svg"
 width="500.000000pt" height="500.000000pt" viewBox="0 0 500.000000 500.000000"
 preserveAspectRatio="xMidYMid meet">

<g transform="translate(0.000000,500.000000) scale(0.100000,-0.100000)"
fill="#000000" stroke="none">
<path d="M2420 4619 c-44 -18 -90 -71 -105 -123 -25 -83 -4 -150 64 -207 l40
-34 -42 -192 -42 -193 -367 0 -367 0 -3 -132 -3 -133 -87 -3 -88 -3 0 -219 0
-219 48 -3 47 -3 3 -172 2 -173 363 -2 362 -3 3 -32 c3 -27 0 -33 -16 -33 -23
0 -32 -18 -32 -66 l0 -34 -98 0 c-96 0 -99 1 -127 30 -34 36 -120 70 -175 70
-140 0 -259 -122 -260 -264 0 -34 -6 -66 -13 -75 -39 -47 -167 -281 -167 -305
0 -42 -106 -223 -136 -230 -38 -10 -91 -64 -110 -111 -18 -49 -33 -56 -138
-59 -64 -2 -71 -7 -167 -127 -84 -106 -108 -157 -109 -227 0 -57 34 -152 54
-152 6 1 40 38 76 83 89 112 130 157 144 157 6 0 31 -18 56 -39 l45 -39 -41
-48 c-139 -167 -167 -205 -157 -215 17 -17 119 -23 167 -9 56 15 100 52 185
154 95 114 105 130 92 155 -6 11 -11 44 -11 75 0 53 1 55 31 61 43 10 106 75
119 125 6 22 8 56 4 76 -4 24 -2 40 8 52 8 9 34 50 58 90 24 41 53 78 66 82
14 6 50 57 99 139 119 203 114 216 117 -281 l3 -413 52 -3 52 -3 -20 -34 c-24
-40 -19 -79 12 -120 l20 -25 -20 -26 c-13 -16 -21 -41 -21 -64 0 -23 8 -48 21
-64 l20 -26 -20 -26 c-27 -35 -27 -93 0 -128 l20 -26 -20 -29 c-12 -16 -21
-34 -21 -40 0 -6 -12 -13 -27 -17 -187 -39 -334 -171 -358 -321 -6 -37 -4 -43
16 -54 30 -16 926 -16 942 0 7 7 7 61 0 168 -6 87 -9 173 -6 190 4 22 -1 44
-16 68 -20 35 -20 35 -1 68 25 41 25 73 0 115 l-20 33 20 26 c27 34 25 82 -4
125 -23 34 -23 35 -5 57 23 29 25 98 3 129 l-15 22 105 0 105 0 -15 -35 c-17
-41 -7 -94 22 -126 10 -11 12 -19 6 -19 -17 0 -42 -55 -42 -92 0 -18 9 -44 19
-57 18 -24 18 -25 0 -55 -24 -39 -24 -83 0 -121 18 -29 18 -31 -1 -57 -14 -21
-19 -42 -17 -85 1 -32 -2 -124 -6 -204 l-8 -147 158 -7 c231 -11 780 -2 798
13 19 16 4 102 -28 157 -52 89 -201 192 -303 210 -32 5 -41 13 -61 51 -24 44
-24 45 -5 65 25 28 26 100 0 127 -18 21 -18 22 3 55 27 44 27 87 -1 122 -17
22 -19 31 -9 44 6 9 18 31 26 49 14 28 14 36 0 68 -19 46 -20 42 13 46 l27 3
3 408 c1 224 6 407 11 407 5 0 43 -58 86 -130 53 -89 83 -130 95 -130 12 0 34
-28 66 -82 26 -46 52 -89 58 -96 5 -8 9 -34 7 -58 -1 -24 3 -60 9 -78 14 -43
77 -102 120 -111 l33 -7 -6 -52 c-3 -28 -9 -65 -12 -82 -6 -28 2 -41 84 -142
101 -124 154 -162 231 -170 61 -6 119 5 126 23 4 8 -34 62 -90 129 -53 64 -96
121 -96 129 0 14 77 77 96 77 6 0 55 -54 109 -120 53 -66 101 -120 106 -120
16 0 51 82 56 135 5 42 1 63 -19 106 -22 49 -181 258 -196 260 -4 0 -29 2 -57
3 -27 2 -68 6 -91 10 -37 7 -42 11 -53 46 -14 46 -59 94 -104 111 -26 9 -42
30 -86 108 -30 53 -55 110 -55 126 -1 26 -154 300 -176 315 -4 3 -7 33 -7 67
1 220 -243 337 -421 203 -47 -36 -58 -40 -112 -40 l-59 0 -3 48 c-3 40 -6 47
-26 50 -19 3 -23 9 -20 35 l3 32 348 3 347 2 0 175 0 175 45 0 45 0 0 220 0
219 -87 3 -88 3 -3 133 -3 132 -399 0 c-219 0 -401 3 -403 8 -3 4 -22 90 -43
191 -35 174 -36 185 -20 195 68 41 106 104 106 177 0 49 -27 115 -56 141 -48
42 -130 58 -184 37z m108 -43 c15 -8 38 -25 50 -39 l24 -25 -44 15 c-43 15
-131 14 -173 -3 -18 -7 -19 -6 -5 11 22 27 72 55 98 55 13 0 35 -6 50 -14z
m-4 -398 c43 -197 62 -299 58 -303 -3 -3 -52 -5 -109 -5 -75 0 -103 3 -103 13
-1 6 16 92 37 190 l38 177 32 0 c31 0 32 -1 47 -72z m655 -425 c30 -124 41
-212 41 -334 l0 -107 -119 -111 -119 -111 -484 0 -485 0 -117 125 -118 125
-79 0 -79 0 0 250 0 250 769 0 769 0 21 -87z m-1589 -292 l0 -120 -37 -3 c-33
-3 -38 -7 -41 -30 -3 -24 -8 -28 -33 -28 l-29 0 0 73 c0 41 -3 108 -6 150 l-7
77 77 0 76 0 0 -119z m1990 -31 l0 -150 -34 0 c-30 0 -35 3 -38 28 -3 24 -7
27 -45 30 l-43 3 0 120 0 119 80 0 80 0 0 -150z m-1697 -245 l118 -125 496 0
495 0 60 55 c34 30 64 52 68 50 30 -19 38 -240 11 -308 l-11 -27 -787 2 -788
3 -3 225 c-1 123 0 230 2 237 4 9 35 13 113 13 l108 0 118 -125z m907 -415 l0
-30 -260 0 -260 0 0 30 0 30 260 0 260 0 0 -30z m-903 -75 c73 -31 73 -40 -3
-45 l-69 -5 -3 -197 -2 -198 -36 0 c-42 0 -98 27 -138 66 -88 87 -88 240 0
328 62 62 171 84 251 51z m943 -15 l0 -30 -300 0 -300 0 0 30 0 30 300 0 300
0 0 -30z m471 7 c119 -63 161 -228 86 -339 -28 -41 -92 -86 -134 -94 l-33 -6
-2 198 -3 199 -90 5 -90 5 35 21 c49 30 58 32 126 33 46 1 72 -5 105 -22z
m-111 -672 l0 -595 -675 0 -675 0 0 595 0 595 675 0 675 0 0 -595z m-1620 335
c15 -35 76 -91 127 -115 19 -9 33 -20 31 -24 -15 -35 -135 -231 -141 -231 -7
0 -196 106 -205 115 -5 5 162 285 169 285 4 0 12 -14 19 -30z m1960 -107 c44
-75 79 -141 77 -147 -6 -16 -197 -119 -205 -111 -4 3 -37 57 -74 118 l-66 112
26 12 c38 16 120 90 138 124 8 16 16 29 19 29 2 0 40 -62 85 -137z m-2063
-239 c70 -44 73 -47 60 -68 -7 -11 -29 -47 -47 -78 l-34 -58 -27 26 c-15 15
-50 34 -78 43 l-50 16 47 82 c26 46 49 83 51 83 2 0 38 -21 78 -46z m2187 -32
c25 -43 46 -82 46 -85 0 -4 -20 -12 -44 -18 -24 -6 -55 -22 -67 -35 -12 -13
-28 -24 -35 -24 -7 0 -31 32 -54 72 -34 59 -39 74 -28 85 15 14 119 80 130 82
3 1 27 -34 52 -77z m-2299 -142 c57 -27 89 -86 82 -147 -6 -58 -32 -92 -90
-122 -43 -21 -52 -22 -95 -11 -126 31 -164 170 -70 257 49 46 109 54 173 23z
m2425 -2 c142 -73 91 -282 -69 -282 -25 0 -60 8 -78 17 -69 36 -97 139 -57
208 21 37 92 79 134 79 14 0 46 -10 70 -22z m-2675 -175 c11 -47 50 -97 95
-120 23 -13 48 -23 55 -23 14 0 19 -20 29 -109 4 -43 3 -47 -80 -146 -48 -58
-101 -111 -124 -124 -44 -25 -143 -40 -154 -23 -3 5 30 54 75 108 97 119 103
128 89 153 -17 33 -95 91 -122 91 -19 0 -43 -24 -113 -110 -49 -60 -92 -110
-96 -110 -12 0 -29 61 -29 107 0 59 32 118 124 230 54 66 80 90 93 87 10 -3
43 -1 73 4 30 6 60 10 66 11 7 0 15 -11 19 -26z m2907 12 l58 -2 76 -93 c41
-51 85 -111 96 -134 24 -48 29 -127 9 -173 l-13 -32 -94 113 c-52 63 -99 116
-106 119 -17 6 -44 -8 -95 -51 -63 -50 -59 -67 47 -192 48 -58 86 -108 83
-112 -6 -12 -71 -10 -114 3 -52 16 -94 53 -182 162 -75 92 -76 93 -67 132 5
22 10 55 10 73 0 22 5 32 15 32 27 0 92 38 118 70 15 17 29 46 33 66 6 33 8
35 38 28 17 -4 57 -8 88 -9z m-1622 -304 c35 -25 39 -79 8 -108 -22 -21 -33
-22 -231 -24 -204 -1 -208 -1 -233 21 -29 29 -31 68 -4 103 26 33 28 33 250
29 158 -3 189 -6 210 -21z m728 9 c12 -11 24 -31 28 -44 8 -32 -21 -84 -49
-91 -13 -4 -112 -5 -220 -3 -187 3 -198 4 -218 25 -41 41 -20 115 35 126 11 2
107 5 212 6 178 1 192 0 212 -19z m-3 -195 c31 -30 33 -77 5 -105 -19 -19 -33
-20 -232 -20 -204 0 -213 1 -235 22 -51 47 -14 114 67 121 25 2 118 4 208 5
161 2 163 2 187 -23z m-725 0 c56 -29 48 -103 -13 -125 -46 -15 -408 -13 -429
4 -39 29 -39 94 -1 124 26 19 404 17 443 -3z m-14 -175 c51 -20 68 -66 39
-104 -19 -26 -99 -35 -301 -35 -138 -1 -152 1 -172 19 -33 31 -33 72 1 108 20
21 26 22 213 22 109 0 205 -5 220 -10z m744 -10 c24 -24 26 -67 4 -98 -15 -22
-19 -22 -231 -22 -209 0 -218 1 -240 22 -29 27 -29 65 -1 95 21 23 25 23 235
23 200 0 214 -1 233 -20z m-6 -171 c14 -11 26 -24 26 -29 0 -5 -34 -7 -79 -3
-104 8 -332 -21 -413 -52 -28 -11 -24 46 5 73 21 20 35 22 197 25 96 1 189 4
206 5 19 1 41 -6 58 -19z m-725 -4 c30 -15 41 -33 41 -66 0 -21 -16 -24 -55
-9 -50 19 -162 33 -310 39 l-150 6 23 23 c21 21 28 22 222 22 157 0 207 -3
229 -15z m-195 -80 c121 -16 208 -38 223 -57 6 -7 13 -70 16 -140 l5 -128
-453 0 -452 0 8 47 c16 83 68 152 157 207 129 80 273 101 496 71z m998 4 c74
-15 171 -65 228 -116 52 -47 100 -130 100 -174 0 -23 -5 -27 -37 -33 -50 -8
-655 -8 -771 0 l-92 7 0 52 c0 29 3 87 7 130 l6 77 41 18 c23 9 75 23 116 30
41 6 82 13 90 15 41 8 266 4 312 -6z"/>
<path d="M2720 3743 c-31 -17 -65 -45 -84 -71 -28 -40 -31 -51 -31 -121 0 -68
3 -83 28 -119 38 -58 93 -92 159 -99 72 -7 120 9 175 60 146 135 44 377 -160
377 -19 0 -58 -12 -87 -27z m204 -24 c20 -13 48 -42 63 -64 23 -34 28 -51 28
-107 0 -58 -4 -72 -30 -110 -44 -61 -95 -88 -170 -87 -57 1 -58 2 -27 12 77
24 118 103 90 175 -40 105 -191 110 -240 7 l-19 -40 4 62 c3 51 9 70 33 100
67 84 187 107 268 52z"/>
<path d="M2121 3745 c-24 -7 -61 -31 -82 -51 -137 -133 -57 -358 132 -372 129
-9 240 94 239 223 0 37 -33 112 -63 143 -54 58 -150 82 -226 57z m172 -37 c58
-39 88 -90 94 -156 6 -70 -22 -130 -80 -176 -34 -27 -47 -31 -115 -34 l-77 -2
39 14 c91 34 131 123 87 193 -33 52 -67 67 -141 64 -36 -2 -79 -40 -95 -86
l-14 -40 -1 53 c-1 120 89 206 210 199 39 -2 66 -10 93 -29z"/>
<path d="M1900 2540 c-19 -19 -20 -33 -20 -369 0 -329 1 -350 19 -372 l19 -24
590 0 c566 0 591 1 611 19 21 19 21 26 21 373 0 340 -1 354 -20 373 -20 20
-33 20 -610 20 -577 0 -590 0 -610 -20z m1200 -375 l0 -355 -590 0 -590 0 0
355 0 355 590 0 590 0 0 -355z"/>
<path d="M2212 1728 c-7 -7 -12 -21 -12 -33 0 -44 9 -45 317 -45 285 0 293 0
303 21 9 16 8 26 -5 45 l-15 24 -288 0 c-211 0 -291 -3 -300 -12z"/>
<path d="M1941 1704 c-78 -65 -31 -194 71 -194 32 0 47 7 74 34 28 28 34 42
34 76 0 34 -6 48 -34 76 -44 44 -99 47 -145 8z m110 -32 l27 -17 -64 0 c-63 0
-64 0 -43 18 27 22 47 22 80 -1z"/>
<path d="M2951 1699 c-29 -29 -35 -47 -32 -94 5 -56 52 -95 114 -95 70 0 120
75 97 145 -26 79 -121 102 -179 44z m120 -28 l24 -20 -38 9 c-21 4 -52 4 -70
-1 l-32 -8 24 19 c30 25 62 25 92 1z"/>
<path d="M2222 1588 c-7 -7 -12 -25 -12 -40 0 -21 6 -31 26 -38 14 -6 140 -10
284 -10 144 0 270 4 284 10 20 7 26 17 26 38 0 15 -5 33 -12 40 -17 17 -579
17 -596 0z"/>
</g>
</svg>
